<svg xmlns="http://www.w3.org/2000/svg" viewBox="0 0 36 36" id="kaggle"><path fill="#EFEFEF" d="M3.442 23.883c6.061 3.333 8.497 8.761 11.417 10.367 2.921 1.606 9.978 3.299 17.366-10.137s.221-19.945-2.992-21.712C14.191-5.869-7.292 17.981 3.442 23.883z"></path><path fill="#A4AFC1" d="M14.875 3.5h2v1h-2zM9.125 3.5h2v1h-2zM12.625 0h1v2h-1zM25.883 26.545c-.827 0-1.5-.673-1.5-1.5s.673-1.5 1.5-1.5 1.5.673 1.5 1.5-.673 1.5-1.5 1.5zm0-2a.5.5 0 1 0 0 1 .5.5 0 0 0 0-1z"></path><path fill="#2FDF84" d="M14.193 6.75h-2.134c-.206 0-.309.111-.309.33v21.839c0 .22.103.33.309.33h2.134c.206 0 .31-.11.31-.33v-4.791l1.268-1.288 4.546 6.178c.124.155.268.232.433.232h2.753c.144 0 .226-.044.247-.132l-.062-.331-5.999-7.963 5.752-5.947c.108-.116.069-.462-.217-.462h-2.846c-.144 0-.288.078-.433.232l-5.442 5.881V7.08c0-.219-.104-.33-.31-.33z"></path><path fill="#00B871" d="m16.753 20.528 5.442-5.881c.145-.154.289-.231.433-.231h-2.25c-.144 0-.288.078-.433.231l-3.192 3.45v2.431zm1.268 2.312-1.268 1.288v.046l3.564 4.844c.124.155.268.232.433.232H23c-.165 0-.309-.077-.433-.232l-4.546-6.178zM14 28.919V7.08c0-.192.093-.285.251-.309-.023-.003-.032-.021-.058-.021h-2.134c-.206 0-.309.111-.309.33v21.839c0 .22.103.33.309.33h2.134c.026 0 .036-.017.058-.021-.158-.024-.251-.116-.251-.309z"></path><path d="M23.502 30H20.75c-.392 0-.753-.182-1.018-.513l-4.043-5.494-.436.442v4.483c0 .636-.436 1.08-1.06 1.08h-2.134c-.624 0-1.059-.444-1.059-1.08V7.08c0-.636.436-1.08 1.059-1.08h2.134c.624 0 1.06.444 1.06 1.08v11.533l4.142-4.476c.369-.391.738-.472.983-.472h2.846c.412 0 .769.232.932.606.167.382.1.83-.165 1.116l-5.317 5.497 5.614 7.451a.75.75 0 0 1 .138.312l.062.331c.02.104.017.21-.007.312-.079.328-.381.71-.979.71zm-2.635-1.5h1.666l-5.444-7.225a.75.75 0 0 1 .06-.973l4.969-5.137h-1.627l-5.438 5.872a.75.75 0 0 1-1.301-.509V7.5H12.5v20.999h1.253v-4.371c0-.197.078-.386.215-.526l1.268-1.288a.746.746 0 0 1 1.138.082l4.493 6.104z"></path></svg>